<?xml version="1.0" encoding="utf-8"?>
<!-- Generator: Adobe Illustrator 24.1.2, SVG Export Plug-In . SVG Version: 6.00 Build 0)  -->
<svg version="1.1" id="Слой_1" xmlns="http://www.w3.org/2000/svg" xmlns:xlink="http://www.w3.org/1999/xlink" x="0px" y="0px"
	 viewBox="0 0 50 50" style="enable-background:new 0 0 50 50;" xml:space="preserve">
<style type="text/css">
	.st0{fill:#0A37AF;}
</style>
<path class="st0" d="M33.3,44.8c-0.4,0-0.8-0.2-1-0.4l-7.2-7h-0.2c-3.4,0.7-6.9-0.7-8.9-3.5l-0.2-0.2l-0.3,0.1
	c-6.3,2-13.1-1.5-15.1-7.8C0.2,24.7,0,23.4,0,22.2c0-5.7,4-10.6,9.6-11.8h0.1l0.1-0.1C11.4,7.6,14.3,6,17.4,6c1.3,0,2.6,0.3,3.8,0.9
	L21.4,7l0.2-0.1c3.8-2.6,8.9-1.9,11.8,1.6l0.2,0.2l0.3-0.1C34.8,8.2,35.9,8,37,8c4.2,0,7.8,2.9,8.6,7v0.2l0.1,0.1
	c3.8,2.4,5.3,7.2,3.3,11.3v0.1v0.1c0,0.2,0,0.5,0,0.7c0,4.7-3.6,8.5-8.3,8.8h-0.3l-0.7,7.2c-0.1,0.8-0.7,1.4-1.5,1.4L33.3,44.8z
	 M25.6,34.1c0.4,0,0.8,0.2,1.1,0.4l7.4,7.2h3l0.7-7.3c0.1-0.8,0.7-1.4,1.5-1.4h0.2c0.3,0.1,0.6,0.1,0.9,0.1c3.2,0,5.8-2.6,5.8-5.8
	c0-0.3,0-0.6-0.1-0.9s0-0.7,0.2-1c1.6-2.8,0.6-6.3-2.2-7.9c-0.1-0.1-0.3-0.1-0.4-0.2c-0.5-0.2-0.8-0.7-0.9-1.2
	C42.5,13.2,40,11,37,11c-1.1,0-2.2,0.3-3.2,0.9c-0.2,0.2-0.5,0.2-0.8,0.2c-0.1,0-0.2,0-0.4,0c-0.4-0.1-0.8-0.4-1-0.8
	c-1.5-2.8-5-3.9-7.8-2.4c-0.5,0.2-0.9,0.6-1.3,0.9c-0.3,0.3-0.6,0.4-1,0.4c-0.3,0-0.6-0.1-0.9-0.3c-2.6-1.8-6.2-1.2-8.1,1.5
	c-0.2,0.3-0.4,0.6-0.5,0.9c-0.2,0.5-0.7,0.8-1.2,0.9c-5,0.3-8.8,4.6-8.4,9.5s4.6,8.8,9.5,8.5c1.4,0,2.7-0.3,3.9-0.9
	c0.2-0.1,0.4-0.1,0.7-0.1c0.2,0,0.3,0,0.5,0.1c0.4,0.1,0.7,0.3,0.9,0.6c0.9,2.1,3,3.4,5.3,3.4c0.6,0,1.2-0.1,1.8-0.3
	C25.3,34.1,25.4,34.1,25.6,34.1z"/>
<polygon class="st0" points="17.3,21.9 19.2,20.1 23.5,24.4 30.7,16.3 32.7,18 23.6,28.2 "/>
</svg>
