<svg id="Слой_1" data-name="Слой 1" xmlns="http://www.w3.org/2000/svg" viewBox="0 0 42.57 37.97"><defs><style>.cls-1{fill:#fff;}</style></defs><path class="cls-1" d="M12.29,31.49a1.4,1.4,0,1,1,0-2.8h24.1a3.1,3.1,0,0,0,3-2.41l3-13.1a2.49,2.49,0,0,0-1.86-3,2.41,2.41,0,0,0-.53-.07L10.36,10,8.88,4.51A3,3,0,0,0,6,2.29H1.25A1.25,1.25,0,1,0,1,4.78H6a.52.52,0,0,1,.5.38l5.67,21A3.92,3.92,0,0,0,12.29,34h1.82A4.37,4.37,0,1,0,22,34h7.87a4.36,4.36,0,1,0,7.88,3.73,4.35,4.35,0,0,0,0-3.79,1.25,1.25,0,0,0-.4-2.43Zm7.62,4.36A1.87,1.87,0,1,1,18,34h0a1.87,1.87,0,0,1,1.86,1.87Zm13.88,1.87a1.87,1.87,0,0,1,0-3.74h.06a1.87,1.87,0,0,1,0,3.74ZM40,12.61h0l-1.28,5.52H34.43l.73-5.57H40ZM27.17,26.21V20.64h4.41l-.73,5.57Zm-6.18,0-.74-5.57h4.42v5.57Zm-5.74,0h0a.66.66,0,0,1-.65-.5l-1.37-5.07h4.5l.74,5.57Zm4.66-8.06-.75-5.63h5.51v5.61Zm7.26,0v-5.6h5.48l-.74,5.58ZM16.65,12.51l.75,5.64H12.56L11,12.49Zm19.74,13.7h-3l.74-5.57H38.2L37,25.73a.61.61,0,0,1-.6.48Z" transform="translate(0.11 -2.28)"/></svg>