<svg id="Слой_1" data-name="Слой 1" xmlns="http://www.w3.org/2000/svg" viewBox="0 0 50 50"><defs><style>.cls-1{fill:#b80a1e;}</style></defs><path class="cls-1" d="M25,49.13A24.13,24.13,0,1,1,49.13,25v2.69a8.82,8.82,0,0,1-8.69,9.11,8.65,8.65,0,0,1-6.64-3.13.49.49,0,0,0-.39-.19h0a.56.56,0,0,0-.38.15,11.8,11.8,0,1,1-.28-17.45.54.54,0,0,0,.36.14h3.71V28.1a3.64,3.64,0,0,0,3.65,3.65,3.73,3.73,0,0,0,3.64-4V25a19.07,19.07,0,1,0-10,16.77l2.53,4.38A23.85,23.85,0,0,1,25,49.13Zm0-30.85A6.73,6.73,0,1,0,31.74,25,6.72,6.72,0,0,0,25,18.28Z"/></svg>