<?xml version="1.0" encoding="utf-8"?>
<!-- Generator: Adobe Illustrator 24.1.2, SVG Export Plug-In . SVG Version: 6.00 Build 0)  -->
<svg version="1.1" id="Слой_1" xmlns="http://www.w3.org/2000/svg" xmlns:xlink="http://www.w3.org/1999/xlink" x="0px" y="0px"
	 viewBox="0 0 50 50" style="enable-background:new 0 0 50 50;" xml:space="preserve">
<style type="text/css">
	.st0{fill:#FFFFFF;}
</style>
<path class="st0" d="M25,49.1C11.7,49.1,0.9,38.3,0.9,25S11.7,0.9,25,0.9S49.1,11.7,49.1,25v2.7c0.2,4.9-3.7,8.9-8.5,9.1
	c-0.1,0-0.1,0-0.2,0c-2.6,0-5-1.2-6.6-3.1c-0.1-0.1-0.2-0.2-0.4-0.2l0,0c-0.1,0-0.3,0.1-0.4,0.2c-4.7,4.5-12.2,4.2-16.7-0.5
	s-4.2-12.2,0.5-16.7c4.4-4.2,11.3-4.3,15.9-0.3c0.1,0.1,0.2,0.1,0.4,0.1h3.7v11.8c0,2,1.6,3.6,3.6,3.6c0,0,0,0,0,0
	c2.1,0,3.7-1.7,3.6-3.8c0-0.1,0-0.1,0-0.2V25c0-10.5-8.5-19.1-19.1-19.1C14.5,5.9,6,14.5,6,25S14.5,44.1,25,44.1
	c3.2,0,6.3-0.8,9.1-2.3l2.5,4.4C33.1,48.1,29.1,49.1,25,49.1z M25,18.3c-3.7,0-6.7,3-6.7,6.7c0,3.7,3,6.7,6.7,6.7
	c3.7,0,6.7-3,6.7-6.7C31.7,21.3,28.7,18.3,25,18.3C25,18.3,25,18.3,25,18.3z"/>
</svg>
