<?xml version="1.0" encoding="utf-8"?>
<!-- Generator: Adobe Illustrator 24.1.2, SVG Export Plug-In . SVG Version: 6.00 Build 0)  -->
<svg version="1.1" id="Слой_1" xmlns="http://www.w3.org/2000/svg" xmlns:xlink="http://www.w3.org/1999/xlink" x="0px" y="0px"
	 viewBox="0 0 50 50" style="enable-background:new 0 0 50 50;" xml:space="preserve">
<style type="text/css">
	.st0{fill:#0A37AF;}
</style>
<path class="st0" d="M41,31.6l2.8-2.8c1.7-1.8,1.7-4.6,0-6.3c-0.5-0.5-1.1-0.9-1.8-1.1c1.5-2,1.1-4.8-0.9-6.2l0,0
	c-0.8-0.6-1.7-0.9-2.7-0.9h-0.1c0.1-2.5-1.9-4.5-4.3-4.6h-0.3V9.6c0-2.5-2-4.5-4.4-4.5c-1.2,0-2.3,0.5-3.2,1.3l-1,1l-1-1
	c-1.7-1.7-4.6-1.8-6.3,0c-0.9,0.9-1.4,2.1-1.3,3.3h-0.1c-2.5,0-4.5,2-4.5,4.5v0.1h-0.1c-2.5,0-4.5,2-4.5,4.4c0,1,0.3,1.9,0.9,2.7
	c-2.4,0.7-3.7,3.2-3,5.6c0.2,0.7,0.6,1.3,1.1,1.9l0,0L9,31.6l0,0c0.2,0.2,0.3,0.3,0.5,0.4l-0.8,0.8c-0.8,0.8-1.2,1.9-1.1,3
	s0.5,2.2,1.4,3l4.7,4.7c1.7,1.7,4.5,1.7,6.3,0l2.1-2.1c2,0.4,4,0.4,6,0l2.2,2.2c1.7,1.7,4.5,1.7,6.3,0l4.7-4.6
	c1.7-1.7,1.9-4.3,0.4-5.8l-1-1L41,31.6L41,31.6L41,31.6z M19.4,8.1c0.8-0.8,2-0.8,2.8-0.1c0,0,0,0,0.1,0.1l0,0l3.7,3.7
	c0.8,0.8,0.8,2.1,0,2.9c-0.4,0.4-0.9,0.6-1.4,0.6l0,0c-0.5,0-1.1-0.2-1.5-0.6L19.4,11l0,0C18.6,10.2,18.6,9,19.4,8.1
	C19.4,8.2,19.4,8.1,19.4,8.1z M14.8,15.6c-0.8-0.8-0.7-2.1,0.1-2.9c0.8-0.7,2-0.7,2.8,0l0,0l3.7,3.7l0,0l0.9,0.9
	c0.8,0.8,0.8,2.1,0,2.9s-2.1,0.8-2.9,0l0,0l0,0l-0.9-0.9l0,0L14.8,15.6L14.8,15.6z M10.2,17.3c0.8-0.8,2-0.8,2.8-0.1
	c0,0,0,0,0.1,0.1l3.7,3.7c0.8,0.8,0.7,2.1-0.1,2.9c-0.8,0.7-2,0.7-2.8,0l0,0l0,0l-3.7-3.7l0,0C9.4,19.4,9.4,18.1,10.2,17.3
	L10.2,17.3z M7.9,27.2L7.9,27.2c-0.8-0.8-0.8-2.1,0-2.9s2.1-0.8,2.9,0l0,0l2.8,2.8c0.8,0.8,0.8,2.1,0,2.9c-0.4,0.4-0.9,0.6-1.4,0.6
	h-0.3c-0.4-0.1-0.8-0.3-1.1-0.6l0,0L7.9,27.2z M21.9,39L21.9,39L21.9,39h-0.5h-0.1l0,0l0,0h-0.1l0,0H21l0,0h-0.1l0,0l0,0h-0.1l0,0
	l-2.6,2.6c-0.8,0.8-2,0.8-2.8,0l0,0l-4.7-4.4c-0.4-0.4-0.6-0.9-0.7-1.4c0-0.4,0.1-0.9,0.4-1.2l1.7-1.7h0.1c2.5,0,4.5-2,4.5-4.4l0,0
	c0-0.6-0.1-1.1-0.3-1.6c1.8-0.4,3.2-1.9,3.5-3.7c0.4,0.1,0.7,0.1,1.1,0.1l0,0c2.5,0,4.5-2,4.5-4.5c0-0.4,0-0.7-0.1-1.1
	c1-0.1,1.8-0.6,2.5-1.3c1.7-1.7,1.7-4.6,0-6.3l-1-1l1-1c0.8-0.8,2.1-0.8,2.9,0s0.8,2.1,0,2.9l0,0l0,0c-0.5,0.5-0.5,1.2,0,1.7
	s1.2,0.5,1.7,0l0,0c0.8-0.8,2.1-0.7,2.9,0.1c0.7,0.8,0.7,2,0,2.8c-0.5,0.5-0.4,1.3,0.1,1.7c0.5,0.4,1.2,0.4,1.6,0
	c0.8-0.8,2.1-0.8,2.9,0c0.8,0.8,0.8,2.1,0,2.9l0,0L38.1,22c-0.4,0.4-0.4,1.1-0.1,1.6l0.1,0.1c0.4,0.5,1,0.6,1.6,0.3
	c1-0.6,2.2-0.3,2.8,0.7c0.5,0.8,0.4,1.9-0.3,2.6l-2.8,2.8l0,0L33.5,36C30.4,38.9,26,40.1,21.9,39z M39.8,34.9
	c0.5,0.5,0.3,1.7-0.4,2.4L34.7,42c-0.8,0.8-2,0.8-2.8,0l0,0l-1.3-1.3c1.7-0.7,3.2-1.7,4.5-3l3.8-3.8L39.8,34.9z"/>
</svg>
