<?xml version="1.0" encoding="utf-8"?>
<!-- Generator: Adobe Illustrator 24.1.2, SVG Export Plug-In . SVG Version: 6.00 Build 0)  -->
<svg version="1.1" id="Слой_1" xmlns="http://www.w3.org/2000/svg" xmlns:xlink="http://www.w3.org/1999/xlink" x="0px" y="0px"
	 viewBox="0 0 50 50" style="enable-background:new 0 0 50 50;" xml:space="preserve">
<style type="text/css">
	.st0{fill:#0A37AF;}
</style>
<path class="st0" d="M5.1,32c0,0.4,0.2,0.8,0.6,1l18.8,11.8c0.4,0.2,0.9,0.2,1.2,0L44.4,33c0.3-0.2,0.5-0.6,0.5-1
	c0-0.4-0.2-0.8-0.6-1l-4-2.5l4-2.5c0.3-0.2,0.6-0.6,0.5-1c0-0.4-0.2-0.8-0.6-1l-4-2.5l4-2.5c0.3-0.2,0.6-0.6,0.5-1
	c0-0.4-0.2-0.8-0.5-1L25.6,5.3c-0.4-0.2-0.9-0.2-1.2,0L5.6,17c-0.3,0.2-0.5,0.6-0.6,1c0,0.4,0.2,0.8,0.6,1l4,2.5l-4,2.5
	c-0.6,0.3-0.7,1.1-0.4,1.6c0.1,0.2,0.2,0.3,0.4,0.4l4,2.5l-4,2.5C5.3,31.2,5.1,31.6,5.1,32z M25,7.6L41.6,18L25,28.3L8.4,18L25,7.6z
	 M11.9,22.9l12.5,7.8c0.4,0.2,0.9,0.2,1.2,0l12.5-7.8l3.4,2.1L25,35.3L8.4,25L11.9,22.9z M11.9,29.9l12.5,7.8c0.4,0.2,0.9,0.2,1.2,0
	l12.5-7.8l3.4,2.1L25,42.4L8.4,32L11.9,29.9z"/>
</svg>
