<?xml version="1.0" encoding="utf-8"?>
<!-- Generator: Adobe Illustrator 24.1.2, SVG Export Plug-In . SVG Version: 6.00 Build 0)  -->
<svg version="1.1" id="Слой_1" xmlns="http://www.w3.org/2000/svg" xmlns:xlink="http://www.w3.org/1999/xlink" x="0px" y="0px"
	 viewBox="0 0 50 50" style="enable-background:new 0 0 50 50;" xml:space="preserve">
<style type="text/css">
	.st0{fill:#B80A1E;}
</style>
<path class="st0" d="M44.5,36.5v0.3C36,32.6,35.2,32,34,33.7c-0.8,1.1-3,3.7-3.6,4.5s-1.3,0.8-2.5,0.3c-3.4-1.3-6.5-3.3-9.2-5.7
	c-2.5-2.3-4.7-5-6.4-8c-1.1-2,1.2-2.2,3.4-6.3c0.3-0.6,0.3-1.4-0.1-2c-0.3-0.6-2.6-6.2-3.5-8.4s-1.9-2-2.6-2
	C7.3,5.8,5.6,5.8,4.2,7.3C-2,14.1-0.4,21.2,4.9,28.6c10.4,13.7,16,16.2,26.1,19.7c2.3,0.7,4.8,0.9,7.2,0.5c2.2-0.3,6.8-2.8,7.8-5.5
	s1-5,0.7-5.5S45.7,37,44.5,36.5L44.5,36.5z"/>
<path class="st0" d="M35.7,26.1l3.9-0.7c-1.3-7.5-7.3-13.3-14.8-14.3L24.2,15C30.1,15.8,34.7,20.3,35.7,26.1z"/>
<path class="st0" d="M41.8,9.2C37.3,4.7,31.5,1.9,25.3,1l-0.5,3.9c10.8,1.5,19.3,9.8,21.2,20.5l3.9-0.7C48.8,18.9,46,13.4,41.8,9.2
	L41.8,9.2z"/>
</svg>
