<?xml version="1.0" encoding="utf-8"?>
<!-- Generator: Adobe Illustrator 24.1.2, SVG Export Plug-In . SVG Version: 6.00 Build 0)  -->
<svg version="1.1" id="Слой_1" xmlns="http://www.w3.org/2000/svg" xmlns:xlink="http://www.w3.org/1999/xlink" x="0px" y="0px"
	 viewBox="0 0 820 820" style="enable-background:new 0 0 820 820;" xml:space="preserve">
<style type="text/css">
	.st0{fill:#FFFFFF;}
	.st1{fill:#9C9C9C;}
</style>
<path class="st0" d="M775.8,820H44.2C19.8,820,0,800.2,0,775.8V44.2C0,19.8,19.8,0,44.2,0h731.6C800.2,0,820,19.8,820,44.2v731.6
	C820,800.2,800.2,820,775.8,820z M44.2,24C33.1,24,24,33.1,24,44.2v731.6c0,11.2,9.1,20.2,20.2,20.2h731.6
	c11.2,0,20.2-9.1,20.2-20.2V44.2c0-11.2-9.1-20.2-20.2-20.2H44.2z"/>
<path class="st0" d="M543,154.5H277v437.9c0,37.8,4.9,61.8,14.6,71.9s32.5,15.8,68.3,16.9v15.7H112.8v-15.7
	c35.5-1.1,58.2-6.8,68.1-16.9s14.8-34.1,14.8-71.9V227.7c0-37.8-4.9-61.8-14.8-71.9s-32.6-15.8-68.1-16.9v-15.7h594.4v15.7
	c-35.5,1.1-58.2,6.8-68.1,16.9c-9.9,10.1-14.8,34.1-14.8,71.9v364.7c0,37.8,4.9,61.8,14.8,71.9c9.9,10.2,32.6,15.8,68.1,16.9v15.7
	H460.6v-15.7c35.3-1.1,57.8-6.7,67.7-16.7s14.8-34.1,14.8-72.1V154.5z"/>
<path class="st1" d="M202.9,530L106,319.1v167.5c0,15.4,1.7,25,5,28.8c4.6,5.2,11.8,7.8,21.6,7.8h8.9v6.9H54.3v-6.8h8.9
	c10.6,0,18.1-3.2,22.6-9.6c2.7-3.9,4.1-12.9,4.1-27V322.8c0-11.1-1.2-19.1-3.7-24c-1.7-3.6-4.9-6.6-9.5-9c-4.6-2.4-12-3.6-22.3-3.6
	v-6.8h71l90.9,196.1l89.5-196.1h71v6.8H368c-10.7,0-18.3,3.2-22.7,9.6c-2.7,4-4.1,13-4.1,27v163.8c0,15.4,1.7,25,5.2,28.8
	c4.6,5.2,11.8,7.8,21.6,7.8h8.7v6.9H270.2v-6.8h8.8c10.7,0,18.2-3.2,22.5-9.6c2.7-3.9,4.1-12.9,4.1-27V319.1L209,530H202.9z"/>
<path class="st1" d="M725.5,273.6l5.7,85.2h-5.7c-7.6-25.5-18.5-43.9-32.7-55.1s-31.2-16.8-51-16.8c-15.9-0.2-31.6,4.2-45.1,12.7
	c-13.4,8.4-24,21.9-31.7,40.4s-11.5,41.5-11.6,68.9c0,22.7,3.6,42.3,10.9,59s18.2,29.4,32.8,38.3c14.6,8.9,31.3,13.3,50,13.3
	c16.3,0,30.6-3.5,43.1-10.5s26.1-20.8,41-41.5l5.7,3.7c-12.6,22.3-27.2,38.6-44,49c-16.8,10.4-36.7,15.5-59.7,15.5
	c-41.5,0-73.7-15.4-96.5-46.2c-17-22.9-25.5-49.9-25.5-81c0-25,5.6-48,16.8-68.9c11.2-20.9,26.6-37.2,46.3-48.7
	c19.5-11.5,41.8-17.5,64.4-17.3c18.1,0,36,4.4,53.6,13.3c5.2,2.7,8.9,4.1,11.1,4.1c3.2,0,6.4-1.2,8.7-3.5c3.2-3.3,5.5-8,6.8-13.9
	L725.5,273.6z"/>
</svg>
