<svg id="Слой_1" data-name="Слой 1" xmlns="http://www.w3.org/2000/svg" viewBox="0 0 820 820"><defs><style>.cls-1{fill:#9c9c9c;}</style></defs><path d="M905.78,950H174.22A44.27,44.27,0,0,1,130,905.78V174.22A44.27,44.27,0,0,1,174.22,130H905.78A44.27,44.27,0,0,1,950,174.22V905.78A44.27,44.27,0,0,1,905.78,950ZM174.22,154A20.24,20.24,0,0,0,154,174.22V905.78A20.24,20.24,0,0,0,174.22,926H905.78A20.24,20.24,0,0,0,926,905.78V174.22A20.24,20.24,0,0,0,905.78,154Z" transform="translate(-130 -130)"/><path d="M673.05,284.48H407V722.34q0,56.68,14.6,71.91t68.32,16.93v15.65H242.81V811.18q53.29-1.7,68.11-16.93t14.81-71.91V357.67q0-56.7-14.81-71.92t-68.11-16.93V253.17H837.19v15.65q-53.3,1.71-68.11,16.93t-14.81,71.92V722.34q0,56.68,14.81,71.91t68.11,16.93v15.65H590.56V811.18q52.88-1.7,67.68-16.71t14.81-72.13Z" transform="translate(-130 -130)"/><path class="cls-1" d="M332.88,660,236,449.07V616.53q0,23.1,5,28.83,6.84,7.77,21.63,7.76h8.87V660H184.28v-6.84h8.87q15.9,0,22.55-9.61,4.06-5.91,4.07-27V452.77q0-16.63-3.7-24-2.59-5.36-9.52-9t-22.27-3.6v-6.84h71l90.93,196.11,89.46-196.11h71v6.84h-8.69q-16.08,0-22.74,9.61-4.06,5.93-4.06,27V616.53q0,23.1,5.17,28.83,6.84,7.77,21.63,7.76h8.69V660H400.16v-6.84H409q16.08,0,22.54-9.61,4.07-5.91,4.07-27V449.07L339,660Z" transform="translate(-130 -130)"/><path class="cls-1" d="M855.47,403.6l5.73,85.21h-5.73Q844,450.55,822.76,433.73t-51-16.82a83,83,0,0,0-45.1,12.66Q706.5,442.23,695,470T683.39,538.9q0,34,10.91,59t32.81,38.26q21.9,13.3,50,13.31,24.4,0,43.07-10.45t41-41.49l5.73,3.7q-18.85,33.45-44,49t-59.7,15.52q-62.29,0-96.48-46.21-25.51-34.38-25.51-81,0-37.53,16.82-68.94t46.3-48.71a125.12,125.12,0,0,1,64.42-17.28q27.16,0,53.6,13.31,7.75,4.06,11.09,4.06a12.15,12.15,0,0,0,8.68-3.51q4.82-5,6.84-13.86Z" transform="translate(-130 -130)"/></svg>